<?xml version="1.0" encoding="utf-8"?>
<!-- Uploaded to: SVG Repo, www.svgrepo.com, Generator: SVG Repo Mixer Tools -->
<svg width="25" height="25" viewBox="0 0 1024 1024"  version="1.1" xmlns="http://www.w3.org/2000/svg"><path d="M661.333333 428.16a21.333333 21.333333 0 0 0-11.733333 27.733333A149.333333 149.333333 0 0 1 661.333333 512a154.666667 154.666667 0 0 1-1.066666 18.773333 21.333333 21.333333 0 0 0 18.56 23.893334h2.56a21.333333 21.333333 0 0 0 21.333333-18.773334A197.12 197.12 0 0 0 704 512a190.72 190.72 0 0 0-13.866667-71.893333 21.333333 21.333333 0 0 0-28.8-11.946667zM628.48 605.44a149.333333 149.333333 0 1 1-79.146667-237.866667 21.333333 21.333333 0 1 0 10.666667-41.386666A192 192 0 1 0 661.333333 632.106667a21.333333 21.333333 0 1 0-33.28-26.666667z"  /><path d="M624.853333 384m-21.333333 0a21.333333 21.333333 0 1 0 42.666667 0 21.333333 21.333333 0 1 0-42.666667 0Z" fill="#231815" /><path d="M981.333333 490.666667h-107.733333a360.533333 360.533333 0 0 0-90.88-219.093334l76.373333-76.16a21.333333 21.333333 0 0 0-30.08-30.08l-76.373333 76.16A360.746667 360.746667 0 0 0 533.333333 150.4V42.666667a21.333333 21.333333 0 0 0-42.666666 0v107.733333a360.746667 360.746667 0 0 0-219.093334 90.88L195.2 165.12a21.333333 21.333333 0 0 0-30.08 30.08l76.373333 76.16A360.533333 360.533333 0 0 0 150.4 490.666667H42.666667a21.333333 21.333333 0 0 0 0 42.666666h107.733333a360.746667 360.746667 0 0 0 90.88 219.093334l-76.16 76.373333a21.333333 21.333333 0 1 0 30.08 30.08l76.373333-76.373333A360.746667 360.746667 0 0 0 490.666667 873.6V981.333333a21.333333 21.333333 0 0 0 42.666666 0v-107.733333a360.746667 360.746667 0 0 0 219.093334-90.88l76.373333 76.373333a21.333333 21.333333 0 0 0 30.08-30.08l-76.373333-76.373333A360.746667 360.746667 0 0 0 873.6 533.333333H981.333333a21.333333 21.333333 0 0 0 0-42.666666zM512 832a320 320 0 1 1 320-320 320 320 0 0 1-320 320z" fill="#231815" /></svg>